<svg width="80" height="80" viewBox="0 0 80 80" fill="none" xmlns="http://www.w3.org/2000/svg">
<path d="M56.9747 41.0537H53.5946C51.9655 41.0537 50.8638 42.7145 51.4968 44.2153L54.283 50.8175C54.7915 52.0223 55.9719 52.8054 57.2792 52.8054H61.6262L56.9747 41.0537Z" fill="#D1EEF2"/>
<path d="M55.7201 49.9003C54.8992 49.9003 54.1289 49.5908 53.543 49.0635L54.2833 50.817C54.7917 52.0219 55.9722 52.8049 57.2795 52.8049H61.6259L60.476 49.9003H55.7201Z" fill="#B2E3E9"/>
<path d="M66.6669 30.5371L79.4232 63.3539C79.8047 64.3341 80 65.3772 80 66.4294C80 71.1181 76.1993 74.9188 71.5106 74.9188H61.9318C60.4156 74.9188 59.187 73.6902 59.187 72.1741V65.9564C59.187 64.4403 60.4156 63.2117 61.9318 63.2117C63.8818 63.2117 65.21 61.2353 64.4733 59.4299L52.6831 30.5377H66.6669V30.5371Z" fill="#7FD0DB"/>
<path d="M79.4232 63.3539L66.6663 30.5371H62.439L75.1959 63.3539C75.5768 64.3341 75.7727 65.3772 75.7727 66.4294C75.7727 71.1181 71.9714 74.9188 67.2833 74.9188H71.5106C76.1993 74.9188 80 71.1181 80 66.4294C80 65.3772 79.8041 64.3341 79.4232 63.3539Z" fill="#29B1C3"/>
<path d="M28.5736 7.20642L37.0874 29.4916C37.3279 30.1215 37.9321 30.5377 38.606 30.5377H67.2314C74.2835 30.5377 80 24.8206 80 17.7686C80 10.7172 74.2835 5 67.2314 5H30.0928C28.9526 5 28.1665 6.14197 28.5736 7.20642Z" fill="#747474"/>
<path d="M28.5736 7.20642L37.0874 29.4916C37.3279 30.1215 37.9321 30.5377 38.606 30.5377H67.2314C74.2835 30.5377 80 24.8206 80 17.7686C80 10.7172 74.2835 5 67.2314 5H30.0928C28.9526 5 28.1665 6.14197 28.5736 7.20642Z" fill="#7FD0DB"/>
<path d="M67.2313 27.1229H36.1821L37.0867 29.4917C37.3278 30.1216 37.932 30.5372 38.6058 30.5372H67.2313C74.2833 30.5372 79.9999 24.8207 79.9999 17.7687C79.9999 17.1895 79.9578 16.6206 79.8827 16.0615C79.0477 22.3054 73.7041 27.1229 67.2313 27.1229Z" fill="#29B1C3"/>
<path d="M28.5736 7.20642L37.0874 29.4916C37.3279 30.1215 37.9321 30.5377 38.606 30.5377H45.5725L35.8167 5H30.0922C28.9526 5 28.1665 6.14197 28.5736 7.20642Z" fill="#D1EEF2"/>
<path d="M36.1821 27.123L37.0867 29.4918C37.3278 30.1217 37.932 30.5374 38.6058 30.5374H45.5724L44.2681 27.123H36.1821Z" fill="#B2E3E9"/>
<path opacity="0.4" d="M7.31714 25.7323C6.64392 25.7323 6.09766 25.1866 6.09766 24.5128V15.407C6.09766 14.7338 6.64392 14.1875 7.31714 14.1875C7.99097 14.1875 8.53662 14.7338 8.53662 15.407V24.5128C8.53662 25.1866 7.99097 25.7323 7.31714 25.7323Z" fill="#A5B0BE"/>
<path d="M10.7322 22.4803C10.0583 22.4803 9.5127 21.9341 9.5127 21.2609V15.407C9.5127 14.7338 10.0583 14.1875 10.7322 14.1875C11.4054 14.1875 11.9517 14.7338 11.9517 15.407V21.2609C11.9517 21.9341 11.4054 22.4803 10.7322 22.4803Z" fill="#A5B0BE"/>
<path opacity="0.4" d="M14.1462 24.1063C13.473 24.1063 12.9268 23.5607 12.9268 22.8868V15.407C12.9268 14.7338 13.473 14.1875 14.1462 14.1875C14.8201 14.1875 15.3663 14.7338 15.3663 15.407V22.8868C15.3657 23.5607 14.8201 24.1063 14.1462 24.1063Z" fill="#A5B0BE"/>
<path opacity="0.4" d="M20.9758 25.7323C20.3026 25.7323 19.7563 25.1866 19.7563 24.5128V15.407C19.7563 14.7338 20.3026 14.1875 20.9758 14.1875C21.6497 14.1875 22.1959 14.7338 22.1959 15.407V24.5128C22.1959 25.1866 21.6497 25.7323 20.9758 25.7323Z" fill="#A5B0BE"/>
<path d="M17.5613 22.4803C16.8875 22.4803 16.3418 21.9341 16.3418 21.2609V15.407C16.3418 14.7338 16.8875 14.1875 17.5613 14.1875C18.2345 14.1875 18.7808 14.7338 18.7808 15.407V21.2609C18.7808 21.9341 18.2345 22.4803 17.5613 22.4803Z" fill="#A5B0BE"/>
<path d="M20.9756 29.3091H7.31714C6.64392 29.3091 6.09766 28.7628 6.09766 28.0896C6.09766 27.4158 6.64392 26.8701 7.31714 26.8701H20.9756C21.6494 26.8701 22.1957 27.4158 22.1957 28.0896C22.1957 28.7628 21.6494 29.3091 20.9756 29.3091Z" fill="#A5B0BE"/>
</svg>
