<svg width="36" height="36" viewBox="0 0 36 36" fill="none" xmlns="http://www.w3.org/2000/svg">
<path d="M36 8.44511L35.9932 7.81579V7.78196V7.74812V7.68722C35.9932 7.68722 35.9932 7.68722 35.9932 7.68045V7.66692C35.9932 7.61955 35.9865 7.57218 35.9729 7.53158C35.9391 7.28797 35.8444 7.04436 35.7091 6.84135L31.6497 0.751128C31.3385 0.284211 30.8108 0 30.2424 0H5.7508C5.18248 0 4.65476 0.284211 4.34354 0.751128L0.290923 6.83459C0.101485 7.10526 0 7.44361 0 7.78196V34.3083C0 35.2421 0.757752 36 1.69141 36H34.3018C35.2355 36 35.9932 35.2421 35.9932 34.3083V8.44511H36ZM23.7474 6.09023V3.38346H29.3358L31.1423 6.09023H23.7474ZM13.0509 17.4113C13.5516 17.7226 14.1673 17.7496 14.695 17.4857L17.9966 15.8346L21.2983 17.4857C21.826 17.7496 22.4416 17.7226 22.9423 17.4113C23.443 17.1 23.7474 16.5654 23.7474 15.9699V9.47368H32.6104V32.6165H3.38282V9.47368H12.2458V15.9699C12.2458 16.5586 12.5435 17.1 13.0509 17.4113ZM20.3646 13.2293L18.7544 12.4241C18.5176 12.309 18.2605 12.2481 17.9966 12.2481C17.7328 12.2481 17.4757 12.309 17.2389 12.4241L15.6286 13.2293V9.47368H20.3646V13.2293ZM15.6286 6.09023V3.38346H20.3646V6.09023H15.6286ZM4.85097 6.09023L6.6574 3.38346H12.2458V6.09023H4.85097Z" fill="#29B1C3"/>
</svg>
