<svg width="38" height="32" viewBox="0 0 38 32" fill="none" xmlns="http://www.w3.org/2000/svg">
<rect x="3" width="32" height="32" rx="16" fill="#41B67F"/>
<path d="M18.9016 18.3281C18.9133 18.3431 18.9282 18.3551 18.9453 18.3635C18.9623 18.3718 18.981 18.3761 19 18.3761C19.019 18.3761 19.0377 18.3718 19.0547 18.3635C19.0718 18.3551 19.0867 18.3431 19.0984 18.3281L20.8484 16.1141C20.9125 16.0328 20.8547 15.9125 20.75 15.9125H19.5922V10.625C19.5922 10.5562 19.5359 10.5 19.4672 10.5H18.5297C18.4609 10.5 18.4047 10.5562 18.4047 10.625V15.9109H17.25C17.1453 15.9109 17.0875 16.0312 17.1516 16.1125L18.9016 18.3281ZM24.7188 17.7812H23.7812C23.7125 17.7812 23.6562 17.8375 23.6562 17.9062V20.3125H14.3438V17.9062C14.3438 17.8375 14.2875 17.7812 14.2188 17.7812H13.2812C13.2125 17.7812 13.1562 17.8375 13.1562 17.9062V21C13.1562 21.2766 13.3797 21.5 13.6562 21.5H24.3438C24.6203 21.5 24.8438 21.2766 24.8438 21V17.9062C24.8438 17.8375 24.7875 17.7812 24.7188 17.7812Z" fill="white"/>
</svg>
