<svg width="24" height="24" viewBox="0 0 24 24" fill="none" xmlns="http://www.w3.org/2000/svg">
<path fill-rule="evenodd" clip-rule="evenodd" d="M2.65333 0H21.3333C22.8 0 24 1.2 24 2.66667V21.3333C24 22.8 22.8 24 21.3333 24H2.65333C1.17333 24 0 22.8 0 21.3333V2.66667C0 1.2 1.17333 0 2.65333 0ZM13.9333 8H17.3333L12 13.3333L6.66667 8H10.0667V4H13.9333V8ZM2.66667 21.3333V17.3333H7.41333C8.33333 18.92 10.04 20 12.0133 20C13.9867 20 15.68 18.92 16.6133 17.3333H21.3333V21.3333H2.66667ZM14.68 14.6667H21.3333V2.66667H2.65334L2.66667 14.6667H9.34667C9.34667 16.1333 10.5467 17.3333 12.0133 17.3333C13.48 17.3333 14.68 16.1333 14.68 14.6667Z" fill="white"/>
</svg>
