<svg width="22" height="26" viewBox="0 0 22 26" fill="none" xmlns="http://www.w3.org/2000/svg">
<path fill-rule="evenodd" clip-rule="evenodd" d="M19.1277 18V11.3333C19.1277 7.24 16.9544 3.81333 13.1277 2.90667V2C13.1277 0.893333 12.2344 0 11.1277 0C10.0211 0 9.12773 0.893333 9.12773 2V2.90667C5.31439 3.81333 3.12773 7.22667 3.12773 11.3333V18L0.46106 20.6667V22H21.7944V20.6667L19.1277 18ZM11.1277 26C12.5944 26 13.7944 24.8 13.7944 23.3333H8.46106C8.46106 24.8 9.66106 26 11.1277 26ZM5.79439 19.3333H16.4611V11.3333C16.4611 8.02667 14.4477 5.33333 11.1277 5.33333C7.80773 5.33333 5.79439 8.02667 5.79439 11.3333V19.3333Z" fill="#2F3542"/>
</svg>
