<svg width="28" height="28" viewBox="0 0 28 28" fill="none" xmlns="http://www.w3.org/2000/svg">
<path fill-rule="evenodd" clip-rule="evenodd" d="M8.66675 0.666687H24.6667C26.1334 0.666687 27.3334 1.86669 27.3334 3.33335V19.3334C27.3334 20.8 26.1334 22 24.6667 22H8.66675C7.20008 22 6.00008 20.8 6.00008 19.3334V3.33335C6.00008 1.86669 7.20008 0.666687 8.66675 0.666687ZM0.666748 6.00002H3.33341V24.6667H22.0001V27.3334H3.33341C1.86675 27.3334 0.666748 26.1334 0.666748 24.6667V6.00002ZM20.6667 3.33335V10L19.3334 9.00002L18.0001 10V3.33335H20.6667ZM8.66675 19.3334H24.6667V3.33335H23.3334V15.3334L19.3334 12.3334L15.3334 15.3334V3.33335H8.66675V19.3334Z" fill="white"/>
</svg>
