<svg width="24" height="28" viewBox="0 0 24 28" fill="none" xmlns="http://www.w3.org/2000/svg">
<path fill-rule="evenodd" clip-rule="evenodd" d="M22 2.66669L20 0.666687L18 2.66669L16 0.666687L14 2.66669L12 0.666687L10 2.66669L8 0.666687L6 2.66669L4 0.666687L2 2.66669L0 0.666687V27.3334L2 25.3334L4 27.3334L6 25.3334L8 27.3334L10 25.3334L12 27.3334L14 25.3334L16 27.3334L18 25.3334L20 27.3334L22 25.3334L24 27.3334V0.666687L22 2.66669ZM2.66667 23.4534V4.54669H21.3333V23.4534H2.66667ZM20 20.6667V18H4V20.6667H20ZM20 12.6667V15.3334H4V12.6667H20ZM20 10V7.33335H4V10H20Z" fill="white"/>
</svg>
